<svg width="400" height="470" viewBox="0 0 400 470" fill="none" xmlns="http://www.w3.org/2000/svg">
<g clip-path="url(#clip0_217_1690)">
<path d="M235.298 144.847L113.032 198.808C107.589 201.21 101.172 198.723 98.7684 193.28C96.3666 187.837 98.8539 181.42 104.296 179.017L226.563 125.056C232.006 122.654 238.423 125.142 240.826 130.584C243.228 136.027 240.741 142.446 235.298 144.847Z" fill="url(#paint0_linear_217_1690)"/>
<path d="M175.027 41.1316L78.3502 83.7998C55.3489 93.9504 44.8352 121.077 54.9858 144.079L71.8859 182.372C75.712 191.041 85.9357 195.005 94.6066 191.178L243.4 125.51C252.069 121.684 256.033 111.46 252.206 102.789L235.306 64.496C225.155 41.493 198.03 30.9785 175.027 41.1316Z" fill="url(#paint1_linear_217_1690)"/>
<path d="M239.305 133.621L103.356 193.621C91.154 199.007 85.5759 213.395 90.961 225.599L98.8332 243.436C120.718 293.024 198.995 360.551 248.584 338.665C298.172 316.78 301.039 213.441 279.154 163.854L271.282 146.016C265.896 133.812 251.507 128.235 239.305 133.621Z" fill="url(#paint2_linear_217_1690)"/>
<path d="M216.084 88.5483C219.038 95.2388 216.436 103.099 210.051 106.666C175.492 125.975 138.13 142.585 98.0627 156.049C91.1113 158.386 83.5128 155.026 80.5524 148.316L77.448 141.281C74.5033 134.61 77.0868 126.782 83.4347 123.192C119.215 102.959 156.365 85.785 195.676 73.4402C202.556 71.2805 209.963 74.6777 212.874 81.2732L216.084 88.5483Z" fill="url(#paint3_linear_217_1690)"/>
<path d="M118.434 127.439C120.441 131.984 118.382 137.297 113.836 139.304C109.291 141.31 103.978 139.251 101.971 134.706C99.9647 130.16 102.024 124.848 106.569 122.841C111.115 120.834 116.427 122.893 118.434 127.439Z" fill="#78BEE6"/>
<path d="M191.571 95.1602C193.578 99.7057 191.519 105.018 186.973 107.025C182.428 109.032 177.115 106.973 175.108 102.427C173.101 97.8819 175.16 92.5691 179.706 90.5624C184.253 88.5548 189.563 90.613 191.571 95.1602Z" fill="#78BEE6"/>
<path d="M115.504 142.409C115.366 142.145 115.466 141.826 115.724 141.692C115.989 141.555 116.307 141.655 116.445 141.921C116.579 142.177 116.479 142.496 116.212 142.634C116.204 142.637 116.195 142.641 116.187 142.645C115.931 142.758 115.625 142.661 115.504 142.409ZM113.152 143.773C112.865 143.837 112.585 143.655 112.513 143.373C112.449 143.085 112.628 142.797 112.914 142.734C113.201 142.67 113.477 142.842 113.553 143.134C113.609 143.383 113.481 143.638 113.252 143.741C113.218 143.756 113.188 143.757 113.152 143.773ZM118.149 140.738C117.957 140.518 117.969 140.186 118.198 139.992C118.414 139.791 118.749 139.811 118.94 140.032C119.141 140.247 119.12 140.583 118.904 140.782C118.859 140.823 118.806 140.846 118.762 140.866C118.553 140.96 118.314 140.918 118.149 140.738ZM109.904 144.104C109.608 144.098 109.382 143.851 109.392 143.563C109.389 143.271 109.633 143.037 109.929 143.042C110.225 143.048 110.451 143.295 110.441 143.583C110.444 143.802 110.31 143.977 110.127 144.059C110.063 144.086 109.99 144.108 109.904 144.104ZM120.307 138.461C120.057 138.298 119.996 137.968 120.157 137.718C120.315 137.48 120.645 137.42 120.891 137.572C121.133 137.739 121.202 138.065 121.041 138.315C120.985 138.403 120.896 138.464 120.809 138.501C120.652 138.573 120.457 138.563 120.307 138.461ZM106.672 143.617C106.397 143.539 106.225 143.247 106.308 142.959C106.386 142.683 106.681 142.52 106.966 142.594C107.242 142.672 107.403 142.969 107.329 143.253C107.283 143.41 107.169 143.533 107.028 143.596C106.925 143.643 106.795 143.658 106.672 143.617ZM121.821 135.723C121.546 135.624 121.401 135.319 121.497 135.036C121.595 134.761 121.9 134.616 122.175 134.715C122.449 134.814 122.594 135.118 122.495 135.393C122.445 135.54 122.341 135.64 122.21 135.697C122.087 135.752 121.954 135.759 121.821 135.723ZM103.665 142.349C103.41 142.198 103.331 141.877 103.471 141.626C103.621 141.371 103.949 141.279 104.204 141.427C104.459 141.578 104.538 141.899 104.388 142.155C104.335 142.252 104.245 142.333 104.149 142.376C103.999 142.443 103.82 142.438 103.665 142.349ZM122.612 132.683C122.317 132.656 122.11 132.4 122.128 132.109C122.156 131.812 122.419 131.603 122.702 131.624C122.997 131.651 123.218 131.911 123.186 132.198C123.173 132.404 123.043 132.567 122.868 132.643C122.798 132.675 122.704 132.697 122.612 132.683ZM101.068 140.373C100.863 140.17 100.857 139.826 101.062 139.619C101.266 139.414 101.601 139.412 101.815 139.611C102.021 139.815 102.027 140.159 101.823 140.365C101.77 140.409 101.715 140.454 101.654 140.482C101.469 140.565 101.233 140.532 101.068 140.373ZM122.627 129.545C122.335 129.6 122.06 129.405 122.016 129.111C121.973 128.825 122.168 128.549 122.449 128.5C122.745 128.454 123.02 128.648 123.06 128.934C123.06 128.934 123.06 128.934 123.064 128.942C123.104 129.177 122.969 129.416 122.749 129.512C122.713 129.528 122.665 129.54 122.627 129.545ZM99.0434 137.809C98.8913 137.561 98.9767 137.229 99.2246 137.077C99.4732 136.926 99.8046 137.01 99.9567 137.258C100.109 137.506 100.023 137.838 99.7755 137.99C99.7585 137.998 99.7314 138.01 99.7144 138.017C99.476 138.122 99.1879 138.04 99.0434 137.809ZM121.158 126.243C121.154 126.234 121.154 126.234 121.15 126.226C121.147 126.217 121.143 126.209 121.134 126.19C121.018 125.926 121.132 125.612 121.404 125.492C121.668 125.375 121.985 125.498 122.101 125.762C122.105 125.771 122.109 125.779 122.112 125.788C122.116 125.796 122.12 125.805 122.125 125.815C122.241 126.079 122.126 126.391 121.854 126.512C121.591 126.63 121.275 126.507 121.158 126.243ZM121.134 126.19L121.138 126.199C121.134 126.19 121.138 126.199 121.134 126.19ZM98.3864 135.179C98.098 135.263 97.8079 135.108 97.7186 134.832C97.634 134.543 97.7986 134.251 98.0777 134.169C98.3538 134.079 98.6561 134.239 98.737 134.519C98.8196 134.776 98.6897 135.054 98.4428 135.163C98.4258 135.171 98.405 135.17 98.3864 135.179ZM119.583 123.627C119.401 123.403 119.44 123.061 119.667 122.886C119.899 122.7 120.234 122.741 120.416 122.965C120.594 123.202 120.561 123.533 120.328 123.719C120.288 123.747 120.254 123.762 120.21 123.782C119.997 123.876 119.733 123.823 119.583 123.627ZM97.729 132.116C97.4403 132.127 97.1916 131.9 97.1764 131.603C97.1651 131.315 97.3928 131.067 97.6892 131.051C97.9778 131.039 98.2266 131.266 98.2417 131.563C98.2443 131.783 98.1142 131.988 97.9199 132.073C97.8673 132.097 97.7985 132.107 97.729 132.116ZM117.441 121.535C117.203 121.356 117.159 121.017 117.334 120.794C117.513 120.556 117.838 120.508 118.076 120.687C118.313 120.866 118.361 121.191 118.182 121.429C118.121 121.507 118.051 121.559 117.973 121.594C117.804 121.668 117.598 121.654 117.441 121.535ZM97.8708 128.984C97.5764 128.914 97.393 128.638 97.4549 128.349C97.5207 128.068 97.8051 127.879 98.0856 127.945C98.3762 128.006 98.5614 128.282 98.4994 128.571C98.4613 128.745 98.3432 128.882 98.193 128.948C98.0938 128.99 97.9771 129.012 97.8708 128.984ZM114.836 120.037C114.565 119.926 114.439 119.613 114.551 119.343C114.672 119.068 114.983 118.943 115.253 119.054C115.524 119.167 115.649 119.478 115.538 119.748C115.48 119.878 115.376 119.978 115.262 120.027C115.13 120.084 114.978 120.1 114.836 120.037ZM98.7719 125.98C98.5165 125.852 98.4057 125.533 98.5309 125.267C98.6692 125.007 98.9784 124.9 99.2448 125.026C99.5047 125.164 99.6156 125.483 99.4858 125.739C99.4241 125.861 99.3341 125.942 99.2187 125.994C99.0872 126.051 98.9198 126.051 98.7719 125.98ZM111.946 119.231C111.655 119.191 111.457 118.91 111.503 118.629C111.543 118.338 111.82 118.132 112.101 118.177C112.396 118.226 112.598 118.494 112.56 118.785C112.525 118.967 112.401 119.117 112.243 119.188C112.155 119.223 112.058 119.244 111.946 119.231ZM100.395 123.299C100.173 123.103 100.15 122.767 100.336 122.546C100.532 122.324 100.869 122.301 101.092 122.497C101.31 122.684 101.333 123.021 101.137 123.243C101.091 123.305 101.028 123.356 100.958 123.385C100.775 123.467 100.552 123.439 100.395 123.299ZM108.954 119.164C108.66 119.19 108.399 118.978 108.365 118.688C108.332 118.396 108.542 118.137 108.845 118.107C108.845 118.107 108.845 118.107 108.836 118.111C109.135 118.073 109.397 118.283 109.421 118.578C109.453 118.817 109.318 119.035 109.116 119.124C109.063 119.147 109.006 119.162 108.954 119.164ZM102.632 121.103C102.463 120.863 102.526 120.531 102.77 120.37C103.01 120.201 103.339 120.256 103.508 120.496C103.668 120.74 103.615 121.07 103.374 121.239C103.343 121.264 103.317 121.275 103.281 121.291C103.061 121.386 102.781 121.32 102.632 121.103ZM106.032 119.854C105.761 119.953 105.449 119.818 105.345 119.536C105.246 119.264 105.387 118.96 105.663 118.849C105.934 118.749 106.237 118.888 106.349 119.165C106.445 119.428 106.314 119.727 106.067 119.836C106.049 119.846 106.041 119.85 106.032 119.854Z" fill="#44AEEA"/>
<path d="M40.5584 77.5591C41.6713 80.0825 40.5285 83.0295 38.0075 84.1433C35.4841 85.2562 32.5371 84.1134 31.4233 81.5924C30.3104 79.069 31.4532 76.1221 33.9742 75.0082C36.4969 73.8936 39.4455 75.0357 40.5584 77.5591Z" fill="url(#paint4_linear_217_1690)"/>
<path d="M52.6489 117.32C52.6489 117.32 64.1732 113.901 63.8532 97.0274L58.3161 92.3294C56.431 90.7301 53.6036 90.98 52.0269 92.8835L47.1466 98.7778C46.0757 100.073 45.8265 101.862 46.5047 103.399L52.6489 117.32Z" fill="url(#paint5_linear_217_1690)"/>
<path d="M37.8286 81.2889C37.5865 81.0631 37.2245 81.3746 37.4123 81.6472L50.0202 100.036C50.306 100.455 50.7839 100.701 51.2923 100.693C51.8007 100.685 52.2681 100.422 52.5408 99.9935L53.3606 98.7074C54.043 97.6379 53.8632 96.2336 52.9355 95.3671L37.8286 81.2889Z" fill="url(#paint6_linear_217_1690)"/>
<path d="M195.867 9.01575C196.98 11.5392 199.928 12.6812 202.451 11.5666C204.974 10.4537 206.116 7.50509 205.002 4.98243C203.889 2.459 200.94 1.31695 198.418 2.43155C195.895 3.54615 194.752 6.49309 195.867 9.01575Z" fill="url(#paint7_linear_217_1690)"/>
<path d="M217.092 44.7441C217.092 44.7441 206.799 50.9541 194.55 39.3461L194.812 32.0887C194.902 29.6186 196.991 27.6972 199.459 27.8164L207.103 28.184C208.781 28.2646 210.271 29.2869 210.949 30.8243L217.092 44.7441Z" fill="url(#paint8_linear_217_1690)"/>
<path d="M201.012 9.44425L206.079 31.0565C206.2 31.5713 206.053 32.1125 205.692 32.4972C205.328 32.8828 204.797 33.0581 204.277 32.9674L202.87 32.7223C201.619 32.5046 200.703 31.427 200.69 30.1579L200.467 9.50911C200.46 9.1798 200.935 9.12372 201.012 9.44425Z" fill="url(#paint9_linear_217_1690)"/>
<path d="M85.9202 108.326C83.4417 109.421 80.4939 108.458 79.1609 106.04C77.7495 103.483 78.6795 100.267 81.2362 98.8553C115.023 80.2154 147.116 65.9305 179.348 55.1839C182.119 54.2596 185.113 55.7567 186.037 58.528C186.962 61.2993 185.474 64.291 182.693 65.2175C151.079 75.7582 119.564 89.7897 86.3455 108.115C86.2073 108.193 86.0653 108.263 85.9202 108.326Z" fill="#FFBEA9"/>
<path d="M157.043 136.306C137.493 144.935 117.36 152.664 96.7711 159.434C89.2223 161.916 80.9452 157.931 77.5148 150.161L74.0556 142.323C70.6527 134.614 73.2397 125.839 80.073 121.913C120.375 98.7519 158.618 81.7948 196.99 70.0732C204.415 67.8054 212.55 71.8367 215.91 79.4504L219.488 87.5579C222.908 95.3081 220.299 104.095 213.418 107.999C195.3 118.28 176.458 127.738 157.043 136.306ZM140.529 92.2279C120.882 100.899 100.991 111.039 80.5686 122.776C74.1781 126.448 71.7695 134.679 74.9652 141.922L78.4251 149.762C81.646 157.061 89.398 160.813 96.4604 158.492C137.433 145.015 176.619 127.737 212.93 107.135C219.364 103.484 221.792 95.2417 218.58 87.9616L215.002 79.8541C211.844 72.7003 204.228 68.9054 197.284 71.0266C178.421 76.7871 159.591 83.816 140.529 92.2279Z" fill="#44AEEA"/>
<path d="M106.386 216.281L115.226 220.028C117.154 220.845 118.027 223.096 117.154 225.001L76.407 314.397C75.5679 316.224 73.43 317.051 71.5793 316.269L66.9656 314.314L106.386 216.281Z" fill="url(#paint10_linear_217_1690)"/>
<path d="M56.181 309.98L65.5011 313.93C69.2603 315.523 73.6027 313.816 75.2722 310.091L112.144 224.16L86.1542 213.145C84.0455 212.251 81.6164 213.27 80.774 215.398L52.1421 300.288C50.627 304.08 52.4218 308.387 56.181 309.98Z" fill="url(#paint11_linear_217_1690)"/>
<path d="M56.181 309.98L65.5011 313.93C69.2603 315.523 73.6027 313.816 75.2722 310.091L112.144 224.16L86.1542 213.145C84.0455 212.251 81.6164 213.27 80.774 215.398L52.1421 300.288C50.627 304.08 52.4218 308.387 56.181 309.98Z" fill="url(#paint11_linear_217_1690)"/>
<path d="M57.5768 296.711L75.8083 248.669C77.2016 245.383 80.9967 243.846 84.2834 245.239C87.57 246.633 89.1066 250.428 87.7133 253.715L69.4818 301.756C68.0886 305.043 64.2934 306.579 61.0068 305.186C57.7183 303.792 56.1816 299.999 57.5768 296.711Z" fill="url(#paint12_linear_217_1690)"/>
<path d="M82.908 244.659L85.6566 245.822L62.3782 305.768L59.6314 304.605L82.908 244.659Z" fill="#0094E8"/>
<path d="M76.5534 210.437C82.257 196.98 97.791 190.693 111.248 196.396C124.706 202.1 130.993 217.634 125.289 231.092C119.586 244.549 104.052 250.836 90.5925 245.132C77.1351 239.429 70.8498 223.895 76.5534 210.437Z" fill="url(#paint13_linear_217_1690)"/>
<path d="M82.3076 212.876C86.6656 202.596 98.5307 197.794 108.81 202.151C119.09 206.508 123.893 218.375 119.535 228.654C115.179 238.934 103.312 243.737 93.0321 239.379C82.7523 235.023 77.9497 223.156 82.3076 212.876Z" fill="#005687"/>
<path d="M131.833 280.259L128.465 273.063C127.106 270.161 124.246 268.612 122.027 269.577L62.099 294.193L71.4935 314.26C72.2549 315.887 73.8795 316.722 75.0886 316.108L130.386 287.435C132.549 286.35 133.192 283.161 131.833 280.259Z" fill="url(#paint17_linear_217_1690)"/>
<path d="M80.3417 322.587C69.9499 327.453 57.5827 322.971 52.7177 312.581C47.8523 302.189 52.3343 289.822 62.7244 284.957C73.1163 280.091 85.4834 284.573 90.3485 294.963C95.2139 305.355 90.734 317.724 80.3417 322.587Z" fill="url(#paint18_linear_217_1690)"/>
<path d="M78.2638 318.145C70.3257 321.861 60.8785 318.438 57.1631 310.501C53.4473 302.563 56.8704 293.116 64.8067 289.401C72.7449 285.685 82.1917 289.106 85.9075 297.044C89.6233 304.982 86.202 314.429 78.2638 318.145Z" fill="#0177BA"/>
<path d="M140.788 286.403L132.843 290.086C132.649 290.176 132.42 290.092 132.329 289.898L121.187 265.858C121.097 265.664 121.181 265.435 121.375 265.344L129.32 261.661C129.514 261.571 129.743 261.655 129.834 261.849L140.976 285.889C141.066 286.083 140.982 286.312 140.788 286.403Z" fill="#0177BA"/>
<path d="M137.19 258.625C141.056 256.106 146.121 255.645 150.548 257.857C157.19 261.172 159.884 269.247 156.566 275.887C154.888 279.248 151.99 281.599 148.677 282.67L137.19 258.625Z" fill="url(#paint19_linear_217_1690)"/>
<path d="M129.088 262.485L127.3 258.628C126.978 257.931 127.32 257.088 128.065 256.742L135.218 253.427C135.963 253.08 136.828 253.365 137.151 254.061L151.406 284.82C151.728 285.517 151.386 286.36 150.641 286.706L143.487 290.021C142.742 290.366 141.878 290.083 141.555 289.387L139.918 285.851L129.088 262.485Z" fill="#44AEEA"/>
<path d="M146.271 239.618C144.75 240.589 136.52 244.698 139.65 248.847L160.653 280.019C161.632 281.474 163.6 281.873 165.071 280.913L185.295 267.707C186.74 266.764 187.181 264.848 186.293 263.368L185.592 262.198C184.728 260.759 182.901 260.227 181.4 260.979L168.006 267.691C166.52 268.435 164.711 267.923 163.836 266.508L152.8 248.647C151.91 247.202 146.271 239.618 146.271 239.618Z" fill="#0177BA"/>
<path d="M169.785 275.768C168.276 276.759 161.161 282.588 158.655 278.035L138.799 246.12C137.872 244.63 138.313 242.671 139.791 241.722L160.113 228.669C161.566 227.735 163.494 228.117 164.481 229.533L165.262 230.651C166.222 232.028 165.96 233.912 164.66 234.975L153.057 244.452C151.77 245.503 151.498 247.364 152.431 248.74L164.215 266.117C165.17 267.521 169.785 275.768 169.785 275.768Z" fill="#0177BA"/>
</g>
<defs>
<linearGradient id="paint0_linear_217_1690" x1="-9.24034" y1="19.4647" x2="179.574" y2="169.711" gradientUnits="userSpaceOnUse">
<stop/>
<stop offset="1" stop-color="#0D3D58"/>
</linearGradient>
<linearGradient id="paint1_linear_217_1690" x1="64.0072" y1="66.4926" x2="277.67" y2="195.106" gradientUnits="userSpaceOnUse">
<stop stop-color="#E06B45"/>
<stop offset="1" stop-color="#D75429"/>
</linearGradient>
<linearGradient id="paint2_linear_217_1690" x1="236.496" y1="351.293" x2="180.986" y2="181.587" gradientUnits="userSpaceOnUse">
<stop stop-color="#E96D44"/>
<stop offset="1" stop-color="#D75429"/>
</linearGradient>
<linearGradient id="paint3_linear_217_1690" x1="79.0811" y1="145.041" x2="214.249" y2="84.3352" gradientUnits="userSpaceOnUse">
<stop stop-color="#052B42"/>
<stop offset="1" stop-color="#1D5373"/>
</linearGradient>
<linearGradient id="paint4_linear_217_1690" x1="29.7856" y1="59.8633" x2="46.9993" y2="114.549" gradientUnits="userSpaceOnUse">
<stop stop-color="#1E75A7"/>
<stop offset="1" stop-color="#0B547C"/>
</linearGradient>
<linearGradient id="paint5_linear_217_1690" x1="47.9987" y1="106.784" x2="64.8731" y2="99.3366" gradientUnits="userSpaceOnUse">
<stop stop-color="#0E3D58"/>
<stop offset="1"/>
</linearGradient>
<linearGradient id="paint6_linear_217_1690" x1="36.0581" y1="59.0027" x2="52.4669" y2="111.131" gradientUnits="userSpaceOnUse">
<stop stop-color="#166089"/>
<stop offset="1" stop-color="#0D3D59"/>
</linearGradient>
<linearGradient id="paint7_linear_217_1690" x1="200.189" y1="6.22124" x2="217.403" y2="60.907" gradientUnits="userSpaceOnUse">
<stop stop-color="#1D7AB0"/>
<stop offset="1" stop-color="#0D3D59"/>
</linearGradient>
<linearGradient id="paint8_linear_217_1690" x1="195.568" y1="41.6549" x2="212.443" y2="34.2078" gradientUnits="userSpaceOnUse">
<stop stop-color="#000509"/>
<stop offset="1" stop-color="#0D3D59"/>
</linearGradient>
<linearGradient id="paint9_linear_217_1690" x1="196.88" y1="7.38124" x2="213.456" y2="60.0419" gradientUnits="userSpaceOnUse">
<stop stop-color="#0D3D58"/>
<stop offset="1" stop-color="#002133"/>
</linearGradient>
<linearGradient id="paint10_linear_217_1690" x1="79.7954" y1="276.162" x2="45.544" y2="286.29" gradientUnits="userSpaceOnUse">
<stop stop-color="#021F2F"/>
<stop offset="1" stop-color="#0F3D57"/>
</linearGradient>
<linearGradient id="paint11_linear_217_1690" x1="153.202" y1="200.468" x2="108.675" y2="241.515" gradientUnits="userSpaceOnUse">
<stop stop-color="#011520"/>
<stop offset="1" stop-color="#0F3D57"/>
</linearGradient>
<linearGradient id="paint12_linear_217_1690" x1="50.0479" y1="269.88" x2="90.5699" y2="279.444" gradientUnits="userSpaceOnUse">
<stop stop-color="#0371AF"/>
<stop offset="1" stop-color="#00476F"/>
</linearGradient>
<linearGradient id="paint13_linear_217_1690" x1="101.383" y1="220.859" x2="-100.499" y2="179.668" gradientUnits="userSpaceOnUse">
<stop stop-color="#0077BA"/>
<stop offset="1" stop-color="#014063"/>
</linearGradient>
<linearGradient id="paint14_linear_217_1690" x1="181.736" y1="466.641" x2="183.044" y2="466.641" gradientUnits="userSpaceOnUse">
<stop stop-color="#DAE3FE"/>
<stop offset="1" stop-color="#E9EFFD"/>
</linearGradient>
<linearGradient id="paint15_linear_217_1690" x1="299.699" y1="146.799" x2="304.706" y2="146.799" gradientUnits="userSpaceOnUse">
<stop stop-color="#DAE3FE"/>
<stop offset="1" stop-color="#E9EFFD"/>
</linearGradient>
<linearGradient id="paint16_linear_217_1690" x1="275.961" y1="152.537" x2="297.304" y2="152.537" gradientUnits="userSpaceOnUse">
<stop stop-color="#DAE3FE"/>
<stop offset="1" stop-color="#E9EFFD"/>
</linearGradient>
<linearGradient id="paint17_linear_217_1690" x1="67.4746" y1="305.675" x2="130.024" y2="276.395" gradientUnits="userSpaceOnUse">
<stop stop-color="#001927"/>
<stop offset="1" stop-color="#0D3D58"/>
</linearGradient>
<linearGradient id="paint18_linear_217_1690" x1="112.006" y1="317.259" x2="23.2623" y2="287.686" gradientUnits="userSpaceOnUse">
<stop stop-color="#0177BA"/>
<stop offset="1" stop-color="#0D3D59"/>
</linearGradient>
<linearGradient id="paint19_linear_217_1690" x1="142.832" y1="270.68" x2="156.716" y2="264.182" gradientUnits="userSpaceOnUse">
<stop stop-color="#001826"/>
<stop offset="1" stop-color="#0D3D59"/>
</linearGradient>
<clipPath id="clip0_217_1690">
<rect width="400" height="470" rx="12" fill="white"/>
</clipPath>
</defs>
</svg>
