<svg width="15" height="14" viewBox="0 0 15 14" fill="none" xmlns="http://www.w3.org/2000/svg">
<path d="M14.532 7.00528C14.532 6.59163 14.1797 6.25752 13.7435 6.25752L8.27952 6.25222L8.27952 1.06559C8.27952 0.651931 7.92719 0.317823 7.49097 0.317823C7.05475 0.317823 6.70241 0.651931 6.70241 1.06559L6.70241 6.25222L1.23288 6.25222C0.796659 6.25222 0.444327 6.58632 0.444327 6.99998C0.444327 7.41364 0.796659 7.74775 1.23288 7.74775L6.70241 7.74775V12.9344C6.70241 13.348 7.05475 13.6821 7.49097 13.6821C7.92719 13.6821 8.27952 13.348 8.27952 12.9344V7.74775L13.7491 7.74775C14.1741 7.74775 14.532 7.40834 14.532 7.00528Z" fill="#0075b7"/>
</svg>
